<svg xmlns="http://www.w3.org/2000/svg" xmlns:xlink="http://www.w3.org/1999/xlink" width="1366" height="280.409" viewBox="0 0 1366 280.409">
  <defs>
    <linearGradient id="linear-gradient" x1="0.5" x2="0.5" y2="1" gradientUnits="objectBoundingBox">
      <stop offset="0" stop-color="#dff2f6"/>
      <stop offset="1" stop-color="#fff"/>
    </linearGradient>
    <clipPath id="clip-path">
      <rect id="Rectangle_329" data-name="Rectangle 329" width="1366" height="280.271" fill="url(#linear-gradient)"/>
    </clipPath>
    <clipPath id="clip-path-2">
      <rect id="Rectangle_322" data-name="Rectangle 322" width="179.55" height="221.138" fill="none"/>
    </clipPath>
    <clipPath id="clip-path-4">
      <rect id="Rectangle_320" data-name="Rectangle 320" width="16.644" height="22.934" fill="none"/>
    </clipPath>
  </defs>
  <g id="Group_1027" data-name="Group 1027" transform="translate(0 -487.729)">
    <g id="Group_418" data-name="Group 418" transform="translate(0 487.729)">
      <g id="Group_417" data-name="Group 417" clip-path="url(#clip-path)">
        <path id="Path_1063" data-name="Path 1063" d="M1366,0V280.271H0V13.117a49.2,49.2,0,0,1,5.495-1.325A48.434,48.434,0,0,1,42.31,20.027a48.649,48.649,0,0,1,63.907,22.425,47.425,47.425,0,0,1,46.977,57.341c-.126.6-.266,1.18-.417,1.767a39.452,39.452,0,0,1,25.913,28.174.185.185,0,0,0,.055.005,26.634,26.634,0,0,1,33.593-8.331,53.238,53.238,0,0,1,79.7,23.714,49.829,49.829,0,0,1,41.588-4.716A40.356,40.356,0,0,1,387.6,194.781a78.007,78.007,0,0,1,24.8,22.534,42.8,42.8,0,0,1,34-3.557c.678.212,1.342.437,2,.683a33.17,33.17,0,0,1,43.446-28.469,28.731,28.731,0,0,1,50.18-6.051,29.1,29.1,0,0,1,49.859,20.987,122.569,122.569,0,0,1,32.83,8.667,56.409,56.409,0,0,1,55.318-13.259,34.671,34.671,0,0,1,57.261-13.955,29.141,29.141,0,0,1,31.93,7.624,28.187,28.187,0,0,1,22.337,23.96,28.8,28.8,0,0,1,.237,4.334,28.149,28.149,0,0,1,17.637,13.5,25.951,25.951,0,0,1,40.237-3.661,27.831,27.831,0,0,1,17.582-13.64,35.338,35.338,0,0,1,49.07-44.907,38.34,38.34,0,0,1,70.605-.307,40.292,40.292,0,0,1,5.785-1.289c.814-.121,1.622-.207,2.432-.277a20.954,20.954,0,0,1,24.663,2.993,28.106,28.106,0,0,1,55.478-2.175c.1.512.186,1.019.256,1.527a134.789,134.789,0,0,1,37.57-10.872,43.209,43.209,0,0,1,.623-6.413,42.328,42.328,0,0,1,83.8,2.787q3.558-1.091,7.182-1.984a26.726,26.726,0,0,1,26.944-23.623c.412.005.818.026,1.229.046a34.787,34.787,0,0,1,16.382-16.739,29.82,29.82,0,0,1,39.148-31.84,47.682,47.682,0,0,1,35.832-36.02,48.283,48.283,0,0,1,7.5-1.115c-.111-1.325-.161-2.671-.14-4.031A41.465,41.465,0,0,1,1366,0" fill="url(#linear-gradient)"/>
      </g>
    </g>
    <g id="Group_409" data-name="Group 409" transform="translate(1047 547)">
      <g id="Group_408" data-name="Group 408" clip-path="url(#clip-path-2)">
        <g id="Group_407" data-name="Group 407">
          <g id="Group_406" data-name="Group 406" clip-path="url(#clip-path-2)">
            <path id="Path_384" data-name="Path 384" d="M70.369,241.506a7.229,7.229,0,0,1-.382-3.842q2.334-28.122,5.5-56.166a22.248,22.248,0,0,0,.151-5.771c-.172-1.15-.525-2.274-.588-3.435a13.856,13.856,0,0,1,.488-3.754q5.869-26.144,11.738-52.287c2.183-9.726,4.362-19.2,6.925-28.837a114.092,114.092,0,0,1,11.328-27.484,3.037,3.037,0,0,1,1.009-1.2,2.688,2.688,0,0,1,1.429-.256c4.028.113,7.606,2.433,11.08,4.475A99,99,0,0,0,137.3,71.57a231.859,231.859,0,0,0-2.349,47.472c5.081,2.74,10.355,5.649,13.626,10.406,3.731,5.425,4.254,12.336,5.531,18.8,1.8,9.1,5.307,17.915,5.773,27.18a14.943,14.943,0,0,1-1.311,7.911c-1.5,2.76-4.331,4.55-7.24,5.733s-6,1.88-8.88,3.142c-2.424,1.063-1.847,4.592-1.8,7.238.065,3.941.46,7.869.854,11.792q1.535,15.284,3.071,30.569c.024.238.007.547-.22.626s-.278-.439-.072-.318" transform="translate(-23.415 -22.468)" fill="#fff"/>
            <path id="Path_385" data-name="Path 385" d="M99.917,40.538a68.326,68.326,0,0,0-11.8-4.523C94.934,23.45,104.9,12.929,114.825,2.642a4.011,4.011,0,0,1,1.445-1.1,3.67,3.67,0,0,1,2.207.114A20.748,20.748,0,0,1,129.6,9.462a3.157,3.157,0,0,1,.771,1.945,3.819,3.819,0,0,1-.645,1.59,31.326,31.326,0,0,0-2.5,6.4c-.726,2.354-1.706,4.709-2.431,7.063-.74,2.4-1.48,4.8-2.168,7.216-.9,3.175-1.466,6.375-2.19,9.6-.337,1.5-.408,3.454-1.018,4.856-.707,1.623-1.074,1.224-2.86.628-5.9-1.967-11.1-5.485-16.636-8.221" transform="translate(-5.08 -0.543)" fill="#fff"/>
            <path id="Path_386" data-name="Path 386" d="M172.006,195.976c.12,2.353,2.09,3.509,4.143,4.664.251.142.281,1.025.279,1.313a3.4,3.4,0,0,1-.481.969,12.314,12.314,0,0,1-2.244,2.209,2.468,2.468,0,0,0-1.057,1.317,2.3,2.3,0,0,0,.073.909q1.642,7.558,3,15.175a1.557,1.557,0,0,1,0,.8,1.6,1.6,0,0,1-.675.693,45.175,45.175,0,0,0-5.311,4.207l-3.292-3.361a2.482,2.482,0,0,1-.706-3.226c1.6-4.908,3.223-9.854,5.775-14.342a1.2,1.2,0,0,0,.214-.614,1.087,1.087,0,0,0-.251-.571c-1.125-1.558-3.015-2.795-3.121-4.713a5.742,5.742,0,0,1,1.267-3.3,8.96,8.96,0,0,1,2.079-2.477c.782.664.831,1.834,1.265,2.763a3.47,3.47,0,0,0,2.062,1.813" transform="translate(-98.747 -75.173)" fill="#f3806e"/>
            <path id="Path_387" data-name="Path 387" d="M232.17,290.717c-2.98-3.428-6.06-6.935-10.085-9.04a7.53,7.53,0,0,0-3.246-1,3.509,3.509,0,0,0-2.992,1.362,3.707,3.707,0,0,0,.232,4.017,10.9,10.9,0,0,0,3.169,2.817l2.762,1.872a12.64,12.64,0,0,1-10.574-1.209,8.788,8.788,0,0,1-2.565-2.315,9.733,9.733,0,0,1-1.529-5.781c.078-6.81,4.339-13.027,9.774-17.129a44.207,44.207,0,0,1,8.81-5.028c2.943-1.3,6.292-2.938,9.457-3.539.616,2.307-.617,6.236-.891,8.681q-.49,4.371-.911,8.751t-.773,8.765q-.177,2.193-.335,4.387c-.049.668-.694,3.937-.3,4.389" transform="translate(-183.672 -98.271)" fill="#f3806e"/>
            <path id="Path_388" data-name="Path 388" d="M168.4,195.9a26.353,26.353,0,0,0-1.88,2.494q-.434.656-.831,1.336c-.251.43-.57.786-.355,1.277a11.483,11.483,0,0,0,3.532,4.41l-1.036.134a20.847,20.847,0,0,0,3.108-2.839,7.669,7.669,0,0,0,.557-.749c.1-.149.19-.3.277-.455a2.6,2.6,0,0,1,.214-.428q.26.221.083.113a1.559,1.559,0,0,0-.191-.092,3.81,3.81,0,0,1-.406-.241,6.741,6.741,0,0,0-.811-.539c-.985-.491-.12-1.965.863-1.476.39.195.7.5,1.081.714a2.144,2.144,0,0,1,.9.684c.549.874-.091,1.919-.584,2.656a17.55,17.55,0,0,1-3.882,3.861A.877.877,0,0,1,168,206.9a12.663,12.663,0,0,1-4.371-5.55c-.434-1.245.557-2.486,1.2-3.482a29.547,29.547,0,0,1,2.363-3.169c.713-.84,1.917.374,1.208,1.208" transform="translate(-94.857 -74.704)" fill="#f3806e"/>
            <path id="Path_389" data-name="Path 389" d="M228.564,92.538l-16.181-15.76a2.1,2.1,0,0,1-1.789.932c-1.735-3.917,1.023-8.327,1.029-12.611a1.426,1.426,0,0,0-.215-.9c-.558-.711-1.663,0-2.238.7l-4.149,5.029c-5.135-4.637-10.421-9.37-16.862-11.9-1.234-.484-3.025-.664-3.521.565a2.7,2.7,0,0,0,.52,2.273A185.927,185.927,0,0,0,201.84,84.83a1.8,1.8,0,0,1,.518,1.02c.024.78-.9,1.215-1.266,1.9-.656,1.217.56,2.545,1.507,3.553a25.254,25.254,0,0,1,3.236,4.719c4.492,7.723,9.146,15.394,14.8,22.313s12.361,13.1,20.267,17.263c.478.252,1.087.489,1.523.171a1.489,1.489,0,0,0,.46-.876l4.711-17.937a57.608,57.608,0,0,0,1.563-7.177c.183-1.413.4-1.778-.77-2.459-.974-.568-2.13-.914-3.139-1.44a54.15,54.15,0,0,1-11.012-7.975c-1.937-1.739-3.807-3.553-5.672-5.37" transform="translate(-183.379 -22.159)" fill="#fff"/>
            <path id="Path_390" data-name="Path 390" d="M256.529,59.685c-.538-.468-1.41-.919-1.872-.376-.366.43-.081,1.082.212,1.565a284.357,284.357,0,0,0,17.438,25.389c-.082-.11,2.823-3.1,3.08-3.4,1.229-1.449,1.419-1.768.309-3.329a77.2,77.2,0,0,0-5.961-6.932,159.787,159.787,0,0,0-13.206-12.915" transform="translate(-253.577 -22.695)" fill="#ffdc76"/>
            <path id="Path_391" data-name="Path 391" d="M94.735,67.941c-2.906,11.61-4.945,23.568-4.2,35.514a18.513,18.513,0,0,0,.723,4.586,21.061,21.061,0,0,0,4.234,6.655,2.818,2.818,0,0,0,1.106.938,2.616,2.616,0,0,0,1.571-.068c4.645-1.257,8.539-4.35,12.287-7.367a13.249,13.249,0,0,0,3.769-4.025c1.228-2.411,1.39-8.808,1.312-11.513-.523-17.86-.079-23.531,3.5-36.564s8.774-25.558,14.093-37.983c1.917-4.479.669-12.451-5.966-11.819-4.938.47-8.757,7.717-11.194,11.346A142.715,142.715,0,0,0,100.33,49.329c-2.178,6.1-4.021,12.326-5.6,18.612" transform="translate(-10.047 -2.406)" fill="#ffdc76"/>
            <path id="Path_392" data-name="Path 392" d="M159.732,218.924h3.488l.52-8.148h-4.528Z" transform="translate(-82.224 -80.992)" fill="#6f69ae"/>
            <path id="Path_393" data-name="Path 393" d="M156.769,194.085h6.771l1-26.748h-8.762Z" transform="translate(-80.903 -64.3)" fill="#6f69ae"/>
            <path id="Path_394" data-name="Path 394" d="M156.31,181.758l-.026-.712h8.134l-.026.712Z" transform="translate(-81.098 -69.567)" fill="#6f69ae"/>
            <path id="Path_395" data-name="Path 395" d="M151.34,154.168a7.02,7.02,0,1,0,7.021-7.021,7.021,7.021,0,0,0-7.021,7.021" transform="translate(-79.018 -56.542)" fill="#6f69ae"/>
            <path id="Path_396" data-name="Path 396" d="M146.644,187.972a5.346,5.346,0,0,0,2.923,3.831,19.1,19.1,0,0,0,2.894.659c2.062.507,3.413,1.863,4.951,3.1.317.254-.338-.232,0,0a13.923,13.923,0,0,0,.732-3.082,24.057,24.057,0,0,1,1.232-3.457c.933-2.078,1.846-4.055,3.7-5.411-.469-.249.435.308,0,0a13,13,0,0,1-4.389-5.31,11,11,0,0,0-1.259-2.488,4.706,4.706,0,0,0-4.938-1.385,7.194,7.194,0,0,0-4.055,3.425,13.1,13.1,0,0,0-1.322,3.477c-.14.554-.254,1.116-.355,1.673a12.567,12.567,0,0,0-.11,4.972" transform="translate(-73.814 -66.947)" fill="#fff"/>
            <path id="Path_397" data-name="Path 397" d="M146.981,120s1.53,8.765,10.428,3.274c4.037-2.746,4.037-9.927,4.037-9.927S152.117,120.5,146.981,120" transform="translate(-72.399 -43.555)" fill="#f3806e"/>
            <path id="Path_398" data-name="Path 398" d="M146.981,120s1.53,8.765,10.428,3.274c4.037-2.746,4.037-9.927,4.037-9.927S152.117,120.5,146.981,120Z" transform="translate(-72.399 -43.555)" fill="none" stroke="#f3806e" stroke-width="0.555"/>
            <g id="Group_405" data-name="Group 405" transform="translate(111.326 96.828)" opacity="0.25">
              <g id="Group_404" data-name="Group 404">
                <g id="Group_403" data-name="Group 403" clip-path="url(#clip-path-4)">
                  <path id="Path_399" data-name="Path 399" d="M83.768,157.253c.257.143,8.39,4.795,8.495,5.635s.422,3.477,2.218,4.321c1.741.82,5.686,12.263,5.931,12.977-.693-2.737-1.4-5.47-2.087-8.2-.554-2.2-1.149-4.482-2.619-6.214a11.465,11.465,0,0,1-1.58-1.931,12.6,12.6,0,0,0-.8-1.711A4.3,4.3,0,0,0,91.76,161c-.6-.3-1.208-.613-1.816-.917a56.886,56.886,0,0,0-6.176-2.834" transform="translate(-83.768 -157.253)" fill="#fff"/>
                </g>
              </g>
            </g>
            <path id="Path_400" data-name="Path 400" d="M102.611,17.378a165.793,165.793,0,0,0-9.833,32.537A215.925,215.925,0,0,0,88.97,83.836c-.234,6.393-.224,12.793-.017,19.185.036,1.1-1.672,1.1-1.709,0a258.029,258.029,0,0,1,1.07-34.534,192.765,192.765,0,0,1,6.374-33.766,160.539,160.539,0,0,1,6.449-18.206c.427-1.009,1.9-.139,1.475.863" transform="translate(23.238 -6.173)" fill="#f3806e"/>
            <path id="Path_401" data-name="Path 401" d="M158.193,1.484c-10.23,9.908-20.209,20.262-27.371,32.674-6.947,12.04-11.293,25.356-14.644,38.788-1.9,7.6-3.481,15.266-5.055,22.934-.221,1.077-1.868.621-1.648-.454,2.834-13.809,5.706-27.673,10.367-41.005a127.114,127.114,0,0,1,8.326-19.028,108.6,108.6,0,0,1,12.04-17.476A230.409,230.409,0,0,1,156.985.276c.79-.766,2,.441,1.208,1.208" transform="translate(-46.298 -0.012)" fill="#f3806e"/>
            <path id="Path_402" data-name="Path 402" d="M100.828,11.455A16.367,16.367,0,0,0,87.681,1.714C86.6,1.605,86.586-.1,87.681,0A18.042,18.042,0,0,1,102.3,10.593c.431,1-1.041,1.871-1.475.863" transform="translate(23.682 0)" fill="#f3806e"/>
            <path id="Path_403" data-name="Path 403" d="M102.5,14.03A20.232,20.232,0,0,0,89.14,3.669c-1.071-.246-.618-1.894.454-1.648a21.889,21.889,0,0,1,14.383,11.146c.5.975-.969,1.84-1.475.863" transform="translate(20.958 -0.767)" fill="#f3806e"/>
            <path id="Path_404" data-name="Path 404" d="M149.64,95.379s4.7-1.943,2.632-6.311-.6,3.7-30.116-8.934c-9.741-4.715-17.494-9.011-17.494-9.011s-.634,11.161,4.5,12.851,8.8-3.84,8.8-3.84-1.368,10.124,6.918,10.7a14.069,14.069,0,0,0,10.143-3.7s9.888,2.8,15.354,1.926c1.094,0,3.086,3.882-.743,6.311" transform="translate(-37.676 -27.329)" fill="#f3806e"/>
            <path id="Path_405" data-name="Path 405" d="M149.64,95.379s4.7-1.943,2.632-6.311-.6,3.7-30.116-8.934c-9.741-4.715-17.494-9.011-17.494-9.011s-.634,11.161,4.5,12.851,8.8-3.84,8.8-3.84-1.368,10.124,6.918,10.7a14.069,14.069,0,0,0,10.143-3.7s9.888,2.8,15.354,1.926C151.477,89.068,153.469,92.95,149.64,95.379Z" transform="translate(-37.676 -27.329)" fill="none" stroke="#f3806e" stroke-linecap="round" stroke-linejoin="round" stroke-width="0.555"/>
            <path id="Path_406" data-name="Path 406" d="M155.846,90.832a11.925,11.925,0,0,0,7.335-2.718q-5.034-1.694-11.32-4.386L151.8,83.7q-.956-.463-1.885-.919c-.075,1-.17,4.145,1.384,6.17a4.948,4.948,0,0,0,3.822,1.856c.241.017.485.025.726.025m-14.65-6.58c2.731,0,4.8-2.638,5.2-3.18-4.182-2.1-7.685-3.951-9.815-5.1.171,3.081.913,7.291,3.2,8.043a4.536,4.536,0,0,0,1.416.233" transform="translate(-67.731 -29.194)" fill="#fff"/>
            <path id="Path_407" data-name="Path 407" d="M270.457,77.6c-2.482-4.573,1.419-9.029,1.022-13.685l.251.6c-.409-.429-.571-.59-1.012-.2a12.682,12.682,0,0,0-1.494,1.662,18.246,18.246,0,0,0-2.39,4.084.863.863,0,0,1-1.342.173c-2.751-2.365-5.5-4.737-8.439-6.874a40.913,40.913,0,0,0-9.076-5.29c-.574-.222-2.191-.718-2.307.338-.071.639.658,1.5.956,2.009q1.415,2.437,2.921,4.82,2.934,4.647,6.2,9.074,3.781,5.131,7.991,9.923c.722.824-.482,2.038-1.208,1.209a154.936,154.936,0,0,1-14.906-20.06c-1.076-1.725-2.167-3.461-3.131-5.253a3.337,3.337,0,0,1-.511-1.915,2.4,2.4,0,0,1,1.746-2.025c1.817-.534,3.767.641,5.335,1.434a46.646,46.646,0,0,1,5.089,3.018A116.881,116.881,0,0,1,266.7,69.033l-1.342.173a19.218,19.218,0,0,1,3.683-5.615,3.169,3.169,0,0,1,1.932-1.236,2.369,2.369,0,0,1,2.142,1.233,6.428,6.428,0,0,1-.107,3.243,31.9,31.9,0,0,1-.931,3.364c-.64,2.1-1.257,4.494-.144,6.545.525.967-.95,1.831-1.475.863" transform="translate(-243.968 -21.542)" fill="#f3806e"/>
            <path id="Path_408" data-name="Path 408" d="M142.442,107.764a3.227,3.227,0,0,1,1.869,1.634,5.034,5.034,0,0,1,.441,2.635.854.854,0,1,1-1.709,0,6.218,6.218,0,0,0,0-1.038c-.014-.164.023.124,0,.016-.008-.04-.014-.08-.021-.12-.015-.079-.033-.159-.053-.237s-.049-.175-.079-.262a.441.441,0,0,1-.042-.114c0,.055.072.159.011.029a2.794,2.794,0,0,0-.219-.385.892.892,0,0,1-.061-.085.621.621,0,1,1,.037.05c-.051-.058-.1-.117-.158-.172s-.1-.093-.153-.139c-.077-.07.155.107.03.024l-.086-.057a2.05,2.05,0,0,0-.179-.1c-.017-.008-.175-.082-.039-.02s-.023,0-.044-.01a.855.855,0,0,1,.454-1.648" transform="translate(-52.26 -41.394)" fill="#f3806e"/>
            <path id="Path_409" data-name="Path 409" d="M173.77,121.4l-.049.036.173-.134a2.032,2.032,0,0,0-.339.344l.134-.173a2.189,2.189,0,0,0-.257.444l.086-.2a2.237,2.237,0,0,0-.145.524c.01-.076.02-.151.031-.227a2.051,2.051,0,0,0,0,.542c-.01-.076-.02-.151-.03-.227.009.06.02.119.034.179a.9.9,0,0,1-.086.658.874.874,0,0,1-.511.393.855.855,0,0,1-1.051-.6,2.818,2.818,0,0,1,.078-1.614,2.893,2.893,0,0,1,.359-.708,3.359,3.359,0,0,1,.321-.39,3.411,3.411,0,0,1,.391-.32.858.858,0,0,1,.659-.086.854.854,0,0,1,.6,1.051l-.086.2a.856.856,0,0,1-.307.307" transform="translate(-100.356 -46.039)" fill="#f3806e"/>
            <path id="Path_410" data-name="Path 410" d="M136.337,71.662a73.018,73.018,0,0,1-15.708-7.2c-4.619-2.686-9.434-5.475-14.854-6.028-1.084-.111-1.095-1.821,0-1.709,5.483.56,10.348,3.151,15.043,5.871,2.428,1.406,4.84,2.845,7.364,4.077a56.875,56.875,0,0,0,8.609,3.346.855.855,0,0,1-.454,1.648" transform="translate(-22.468 -21.793)" fill="#f3806e"/>
            <path id="Path_411" data-name="Path 411" d="M135.347,67.96c-8.34-2.382-15.011-8.213-22.942-11.5a27.19,27.19,0,0,0-6.9-1.921c-1.076-.138-1.089-1.848,0-1.709,8.773,1.126,15.79,6.771,23.44,10.7a37.816,37.816,0,0,0,6.852,2.782.855.855,0,0,1-.454,1.648" transform="translate(-21.321 -20.299)" fill="#f3806e"/>
            <path id="Path_412" data-name="Path 412" d="M109.888,12.782a100.751,100.751,0,0,0-13.88,23.98c-.409,1-2.063.565-1.648-.454a103.636,103.636,0,0,1,14.319-24.733c.676-.866,1.877.351,1.208,1.208" transform="translate(11.405 -4.333)" fill="#f3806e"/>
            <path id="Path_413" data-name="Path 413" d="M119.764,56.662a.855.855,0,0,1,0-1.709.855.855,0,0,1,0,1.709" transform="translate(-14.275 -21.116)" fill="#f3806e"/>
            <path id="Path_414" data-name="Path 414" d="M114.654,40.909a71.177,71.177,0,0,1,7.146-12.83c2.928-4.327,5.991-8.568,9.075-12.786.642-.879,2.126-.027,1.475.863-3.028,4.143-6.036,8.308-8.918,12.554a70.047,70.047,0,0,0-7.13,12.653c-.411,1-2.065.565-1.648-.454" transform="translate(-23.518 -5.735)" fill="#f3806e"/>
            <path id="Path_415" data-name="Path 415" d="M112.121,12.442v-.126a.646.646,0,0,1,.074-.329.632.632,0,0,1,.176-.275.954.954,0,0,1,.6-.251l.227.031a.853.853,0,0,1,.377.22l.134.172a.85.85,0,0,1,.116.432v.126a.946.946,0,0,1-.25.6.954.954,0,0,1-.6.251l-.227-.031a.859.859,0,0,1-.377-.22l-.134-.173a.854.854,0,0,1-.116-.431" transform="translate(-3.319 -4.404)" fill="#f3806e"/>
            <path id="Path_416" data-name="Path 416" d="M107.059,99.915q-.109,1.787-.219,3.575a5.34,5.34,0,0,1-.216,1.738,1.189,1.189,0,0,1-1.668.7.858.858,0,0,1-.173-1.342,3.822,3.822,0,0,0,.467-.448c.014-.016.139-.169.07-.081s.03-.043.041-.057q.092-.133.175-.272c.055-.093.105-.188.153-.285.026-.054.052-.108.075-.164-.031.072-.033.084,0,0a5,5,0,0,0,.188-.659c.009-.047.015-.095.026-.142.029-.128-.018.2,0-.023.01-.108.019-.216.022-.324s0-.217,0-.324c0-.048,0-.1-.009-.144,0-.023-.025-.224-.009-.1s-.009-.044-.012-.064c-.01-.058-.022-.118-.036-.175q-.036-.158-.085-.312c-.015-.046-.03-.091-.046-.136-.027-.074-.057-.139-.007-.03q-.074-.164-.162-.322a.855.855,0,0,1,1.169-1.169,3.525,3.525,0,0,1,1.423,2.931c.052,1.066-.167,2.447-1.374,2.77a.855.855,0,1,1-.454-1.648q.139-.042-.028.022c.079-.049.071-.039-.025.03a.76.76,0,0,0,.084-.088q-.1.138-.028.018c.086-.2-.045.178.02-.036.027-.087.053-.174.071-.264.009-.046.017-.091.024-.136-.015.113-.017.121-.007.023,0-.069.009-.137.01-.206q.009-.281-.008-.561c-.006-.088-.014-.176-.023-.264.022.206-.021-.107-.029-.143a3.626,3.626,0,0,0-.142-.494c.068.188-.044-.083-.064-.119-.035-.062-.074-.12-.113-.179.108.164-.06-.061-.094-.094s-.069-.064-.106-.094c.079.061.078.063,0,.007l1.169-1.169a5,5,0,0,1-1.114,6.132q-.086-.671-.173-1.342a.649.649,0,0,0-.708.059c-.064.086-.079.1-.047.045s.022-.038-.02.051a.94.94,0,0,0,.035-.13c-.066.219,0-.044,0-.107.006-.1.012-.207.019-.311l.085-1.4.168-2.746a.854.854,0,1,1,1.709,0" transform="translate(6.954 -38.064)" fill="#f3806e"/>
            <path id="Path_417" data-name="Path 417" d="M184.078,139.286a.855.855,0,0,1,0-1.709.855.855,0,0,1,0,1.709" transform="translate(-118.191 -52.864)" fill="#f3806e"/>
            <path id="Path_418" data-name="Path 418" d="M220.7,120.161c-5.874-2.151-10.878-6.263-15.519-10.354-4.8-4.229-9.25-8.823-13.783-13.327-2.546-2.529-5.121-5.03-7.79-7.429-.82-.736.392-1.942,1.208-1.208,9.269,8.327,17.354,18,27.357,25.5a35.626,35.626,0,0,0,8.982,5.174c1.024.375.582,2.027-.454,1.648" transform="translate(-155.08 -33.666)" fill="#f3806e"/>
            <path id="Path_419" data-name="Path 419" d="M256.422,88.969a32.043,32.043,0,0,0-11.8,11.723.855.855,0,0,1-1.475-.862,33.771,33.771,0,0,1,12.412-12.336.855.855,0,0,1,.863,1.475" transform="translate(-226.93 -33.574)" fill="#f3806e"/>
            <path id="Path_420" data-name="Path 420" d="M195.756,107.466a34,34,0,0,1,4.294,4.452,20.2,20.2,0,0,1,2.687,5.5,20.956,20.956,0,0,0,3.377,5.514c1.241,1.611,2.438,3.254,3.621,4.908,4.768,6.67,9.38,13.6,15.723,18.908a45.437,45.437,0,0,0,12.182,7.276c1.007.405.568,2.059-.454,1.648A50.363,50.363,0,0,1,217.228,140.8c-2.645-3.18-5.039-6.557-7.43-9.929-1.228-1.733-2.457-3.465-3.723-5.171a55.526,55.526,0,0,1-3.864-5.318c-1.193-2.089-1.6-4.512-2.9-6.549a26.839,26.839,0,0,0-4.765-5.159c-.814-.743.4-1.949,1.208-1.208" transform="translate(-178.285 -41.205)" fill="#f3806e"/>
            <path id="Path_421" data-name="Path 421" d="M245.945,99.685a80.345,80.345,0,0,0-13.1,13.337c-.673.868-1.874-.349-1.208-1.208a80.3,80.3,0,0,1,13.1-13.337c.848-.683,2.065.518,1.208,1.208" transform="translate(-209.198 -37.762)" fill="#f3806e"/>
            <path id="Path_422" data-name="Path 422" d="M254.294,108.329l-.006-.015.086.2a.805.805,0,0,0-.089-.155l.134.173a.837.837,0,0,0-.148-.147l.173.134a.956.956,0,0,0-.2-.113l.2.086a1.065,1.065,0,0,0-.254-.068l.227.031a1.064,1.064,0,0,0-.262,0l.227-.03a.923.923,0,0,0-.218.06l.2-.086a.83.83,0,0,0-.166.1l.173-.134a.781.781,0,0,0-.127.128l.134-.173a.744.744,0,0,0-.091.159c.028-.068.057-.136.086-.2a.863.863,0,0,0-.051.191c.01-.076.02-.151.031-.227a.926.926,0,0,0,0,.233c-.01-.076-.02-.151-.031-.227a1.083,1.083,0,0,0,.071.26l-.086-.2a1.077,1.077,0,0,0,.128.218l-.134-.173a.967.967,0,0,0,.153.153l-.173-.134a.85.85,0,0,0,.171.1l-.2-.086a.766.766,0,0,0,.18.048l-.227-.03a.788.788,0,0,0,.187,0l-.227.031a.868.868,0,0,0,.2-.055l-.2.086a.959.959,0,0,0,.193-.113l-.173.134a1.077,1.077,0,0,0,.187-.188l-.134.173a1.054,1.054,0,0,0,.123-.212l-.086.2a.9.9,0,0,0,.06-.215c-.01.076-.02.151-.03.227a.859.859,0,0,0,0-.2c.01.076.02.151.03.227a.777.777,0,0,0-.041-.164.648.648,0,0,1-.015-.341.635.635,0,0,1,.1-.318.854.854,0,0,1,1.169-.307l.173.134a.853.853,0,0,1,.22.377,1.364,1.364,0,0,1,.078.5,1.548,1.548,0,0,1-.084.5,1.824,1.824,0,0,1-.223.451,2.429,2.429,0,0,1-.22.273,2.348,2.348,0,0,1-.272.221,1.662,1.662,0,0,1-.449.22.812.812,0,0,1-.143.034,1.775,1.775,0,0,1-.357.037,1.692,1.692,0,0,1-.668-.169,1.56,1.56,0,0,1-.382-.265,1.807,1.807,0,0,1-.493-.8,1.886,1.886,0,0,1-.078-.475,1.642,1.642,0,0,1,.052-.475,1.387,1.387,0,0,1,.078-.212,1.366,1.366,0,0,1,.105-.22,1.7,1.7,0,0,1,.463-.475,1.662,1.662,0,0,1,.88-.28,1.837,1.837,0,0,1,.506.05,1.756,1.756,0,0,1,.465.182,1.514,1.514,0,0,1,.195.137,1.447,1.447,0,0,1,.188.159,1.752,1.752,0,0,1,.361.6.65.65,0,0,1,.015.341.629.629,0,0,1-.1.317.854.854,0,0,1-1.169.307l-.173-.134a.853.853,0,0,1-.22-.377" transform="translate(-232.036 -41.016)" fill="#f3806e"/>
            <path id="Path_423" data-name="Path 423" d="M148.165,208.915l-.006-.015.086.2a.806.806,0,0,0-.089-.155l.134.173a.835.835,0,0,0-.148-.147l.173.134a.955.955,0,0,0-.2-.113l.2.086a1.066,1.066,0,0,0-.254-.068l.227.031a1.064,1.064,0,0,0-.262,0l.227-.03a.924.924,0,0,0-.218.06l.2-.086a.831.831,0,0,0-.166.1l.173-.134a.779.779,0,0,0-.127.128l.134-.173a.744.744,0,0,0-.091.159c.028-.068.057-.136.086-.2a.863.863,0,0,0-.051.191c.01-.076.02-.151.031-.227a.925.925,0,0,0,0,.233c-.01-.076-.02-.151-.031-.227a1.085,1.085,0,0,0,.071.26l-.086-.2a1.077,1.077,0,0,0,.128.218l-.134-.173a.968.968,0,0,0,.153.153l-.173-.134a.851.851,0,0,0,.171.1l-.2-.086a.766.766,0,0,0,.18.048l-.227-.03a.787.787,0,0,0,.187,0l-.227.031a.869.869,0,0,0,.2-.055l-.2.086a.96.96,0,0,0,.193-.113l-.173.134a1.077,1.077,0,0,0,.187-.188l-.134.173a1.053,1.053,0,0,0,.123-.212l-.086.2a.9.9,0,0,0,.06-.215c-.01.076-.02.151-.03.227a.859.859,0,0,0,0-.2c.01.076.02.151.03.227a.778.778,0,0,0-.041-.164.647.647,0,0,1-.015-.341.635.635,0,0,1,.1-.318.854.854,0,0,1,1.169-.307l.173.134a.853.853,0,0,1,.22.377,1.364,1.364,0,0,1,.078.5,1.548,1.548,0,0,1-.084.5,1.823,1.823,0,0,1-.223.451,2.425,2.425,0,0,1-.22.273,2.346,2.346,0,0,1-.272.221,1.662,1.662,0,0,1-.449.22.812.812,0,0,1-.143.034,1.776,1.776,0,0,1-.357.037,1.692,1.692,0,0,1-.668-.169,1.559,1.559,0,0,1-.382-.265,1.807,1.807,0,0,1-.493-.8,1.885,1.885,0,0,1-.078-.475,1.643,1.643,0,0,1,.052-.475,1.391,1.391,0,0,1,.078-.212,1.367,1.367,0,0,1,.105-.22,1.694,1.694,0,0,1,.463-.475,1.662,1.662,0,0,1,.88-.28,1.837,1.837,0,0,1,.506.05,1.756,1.756,0,0,1,.465.182,1.513,1.513,0,0,1,.195.137,1.447,1.447,0,0,1,.188.159,1.752,1.752,0,0,1,.361.6.649.649,0,0,1,.015.341.629.629,0,0,1-.1.317.854.854,0,0,1-1.169.307l-.173-.134a.853.853,0,0,1-.22-.377" transform="translate(-60.559 -79.666)" fill="#f3806e"/>
            <path id="Path_424" data-name="Path 424" d="M172.579,155.039c1.267,6.063,2.892,13.272,9.074,16.163,1,.465.129,1.939-.863,1.476-6.6-3.086-8.5-10.691-9.859-17.185-.224-1.073,1.422-1.532,1.648-.454" transform="translate(-107.782 -59.338)" fill="#f3806e"/>
            <path id="Path_425" data-name="Path 425" d="M135.091,157.627c-2.442.76-4.238,2.662-6.007,4.411-1.816,1.794-3.674,3.55-5.631,5.191a39.054,39.054,0,0,1-13.071,7.62c-1.05.334-1.5-1.315-.454-1.648a38.04,38.04,0,0,0,13.108-7.855c1.925-1.665,3.743-3.442,5.556-5.226a15.43,15.43,0,0,1,6.045-4.141c1.053-.328,1.5,1.321.454,1.648" transform="translate(-23.458 -59.919)" fill="#f3806e"/>
            <path id="Path_426" data-name="Path 426" d="M180.218,196.407a53.384,53.384,0,0,1-6.963,2.369.855.855,0,0,1-.454-1.648,53.467,53.467,0,0,0,6.963-2.369.859.859,0,0,1,1.051.6.877.877,0,0,1-.6,1.051" transform="translate(-107.326 -74.819)" fill="#f3806e"/>
            <path id="Path_427" data-name="Path 427" d="M186.65,155.544c-2.614,8.754-.467,17.933,1.611,26.559.257,1.068-1.39,1.525-1.648.454-2.149-8.923-4.314-18.415-1.611-27.467a.855.855,0,0,1,1.648.454" transform="translate(-121.876 -59.364)" fill="#f3806e"/>
            <path id="Path_428" data-name="Path 428" d="M125,157.284a26.841,26.841,0,0,0-3.132,5.8c-.895,2.091-1.806,4.162-2.905,6.156a52.031,52.031,0,0,1-7.982,10.83c-.762.8-1.969-.414-1.208-1.209a50.264,50.264,0,0,0,7.843-10.719c2.082-3.824,3.254-8.225,5.908-11.716.656-.864,2.142-.014,1.475.863" transform="translate(-13.062 -59.967)" fill="#f3806e"/>
            <path id="Path_429" data-name="Path 429" d="M204.585,132.15q-3.925-2.182-7.851-4.364a11.093,11.093,0,0,0-1.813-.881,3.864,3.864,0,0,0-2.016-.092c-1.126.189-2.736-.284-2.541-1.735a.884.884,0,0,1,.854-.855.859.859,0,0,1,.855.855c-.028.211,1.31-.083,1.534-.093a4.881,4.881,0,0,1,1.652.233,17.833,17.833,0,0,1,3.275,1.613l6.914,3.843c.961.534.1,2.01-.863,1.475" transform="translate(-143.523 -47.733)" fill="#f3806e"/>
            <path id="Path_430" data-name="Path 430" d="M220.517,133.791a61.01,61.01,0,0,0,8.377,9.519c1.484,1.368,3.127,2.559,4.6,3.939a7.567,7.567,0,0,1,1.693,2.2c.335.7.5,1.7,1.243,2.09.974.512.111,1.988-.862,1.475a3.515,3.515,0,0,1-1.526-1.915,7.03,7.03,0,0,0-1.489-2.381c-1.5-1.513-3.293-2.749-4.862-4.2a63.085,63.085,0,0,1-8.644-9.864c-.638-.9.843-1.753,1.475-.863" transform="translate(-192.081 -51.265)" fill="#f3806e"/>
            <path id="Path_431" data-name="Path 431" d="M138.437,197.131a32.974,32.974,0,0,0-5.142,6.931,29.7,29.7,0,0,0-3.249,7.968c-.247,1.071-1.895.618-1.648-.454a31.348,31.348,0,0,1,3.421-8.376,34.7,34.7,0,0,1,5.409-7.276.855.855,0,0,1,1.208,1.208" transform="translate(-38.182 -75.186)" fill="#f3806e"/>
            <path id="Path_432" data-name="Path 432" d="M161.995,189.122a12.11,12.11,0,0,1-3.949-1.663,6.555,6.555,0,0,1-2.164-3.645,19.508,19.508,0,0,1-.4-4.291,16.208,16.208,0,0,0-1.983,6.206,10.678,10.678,0,0,0,1.3,6.322,4.767,4.767,0,0,0,1.421,1.611,7.8,7.8,0,0,0,2.49.861c2.249.557,4.585,1.726,5.457,3.873-.272-.67.3-2.357.446-3.068.22-1.085.712-2.179.87-3.263.249-1.7-2.171-2.525-3.491-2.944" transform="translate(-80.441 -68.982)" fill="#ffdc76"/>
            <path id="Path_433" data-name="Path 433" d="M91.281,195.245c8.792,2.311,19.176,5.5,22.557,14.987a68.227,68.227,0,0,1,2.039,8.526c.232,1.072-1.415,1.53-1.648.454-.97-4.486-1.536-9.283-4.573-12.927a24.744,24.744,0,0,0-10.827-7.026c-2.618-.948-5.313-1.658-8-2.366a.855.855,0,0,1,.454-1.648" transform="translate(8.098 -75.011)" fill="#f3806e"/>
            <path id="Path_434" data-name="Path 434" d="M162.253,183.587c-2.786-.891-3.786-3.641-5.113-5.959a5.058,5.058,0,0,0-2.818-2.646,4.611,4.611,0,0,0-3.622.7c-2.533,1.592-3.188,4.859-3.362,7.631-.142,2.282-.123,5.32,1.819,6.912,1.3,1.064,3.157,1.014,4.668,1.6a7.779,7.779,0,0,1,3.729,3.066c.6.925-.878,1.783-1.475.863a6.312,6.312,0,0,0-4.044-2.679,9.021,9.021,0,0,1-4.156-1.7c-2.1-1.862-2.4-5.057-2.27-7.685.15-3.068.767-6.548,3.181-8.694,2.147-1.908,5.438-2.6,7.822-.712a11.613,11.613,0,0,1,2.827,4.041c.736,1.437,1.629,3.09,3.27,3.615,1.043.334.6,1.984-.454,1.648" transform="translate(-73.393 -66.54)" fill="#f3806e"/>
            <path id="Path_435" data-name="Path 435" d="M200.621,156.028q-3.319,11.02-5.77,22.274-1.239,5.7-2.247,11.438c-.638,3.631-1.089,7.314-2,10.893-.516,2.037-1.356,3.958-1.924,5.975-.49,1.74-.705,3.866.479,5.392.666.858-.535,2.077-1.208,1.208-2.308-2.975-1.149-6.547,0-9.739a64.659,64.659,0,0,0,2.527-11.385q1.966-11.869,4.909-23.549,1.643-6.522,3.586-12.963a.855.855,0,0,1,1.648.454" transform="translate(-136.025 -59.55)" fill="#f3806e"/>
            <path id="Path_436" data-name="Path 436" d="M104.567,164.283c-4.271.975-5.777,5.67-6.891,9.351a.855.855,0,0,1-1.648-.454c1.294-4.276,3.174-9.424,8.084-10.545,1.071-.244,1.528,1.4.454,1.648" transform="translate(15.266 -62.484)" fill="#f3806e"/>
            <path id="Path_437" data-name="Path 437" d="M110.195,183.886a.855.855,0,0,1,0-1.708.855.855,0,0,1,0,1.708" transform="translate(1.186 -70.003)" fill="#f3806e"/>
            <path id="Path_438" data-name="Path 438" d="M96.44,206.225c-.065-.031-.1-.036-.01-.016-.072-.016-.124-.006-.025-.018-.075.009-.115.026-.02,0l.139-.042c.077-.024.074-.033,0,0l.134-.065c.089-.045.174-.094.262-.14a4.911,4.911,0,0,1,1.312-.53,2.891,2.891,0,0,1,2.675.777A.854.854,0,1,1,99.7,207.4c-.03-.03-.253-.212-.087-.094a2.1,2.1,0,0,0-.235-.147c-.041-.022-.083-.042-.124-.06.1.041.1.046.01.012a.9.9,0,0,0-.268-.066c.113.013.121.015.022.006q-.069,0-.139,0c-.051,0-.1,0-.153.007.1-.016.1-.016,0,0s-.2.044-.3.075c-.027.009-.268.094-.188.063s-.154.071-.181.084c-.093.046-.185.094-.276.143a6.463,6.463,0,0,1-.667.322,1.841,1.841,0,0,1-1.538-.042.859.859,0,0,1-.307-1.169.877.877,0,0,1,1.169-.307" transform="translate(19.804 -78.906)" fill="#f3806e"/>
            <path id="Path_439" data-name="Path 439" d="M101.757,155.69c2.382,1.132,4.792,2.219,7.146,3.409a12.169,12.169,0,0,1,4.787,4.189,24.086,24.086,0,0,1,2.613,5.826c.79,2.4,1.5,4.82,2.178,7.25a196.032,196.032,0,0,1,5.937,30.524c.5,4.356,1.242,10.043-2.989,12.892-1.815,1.222-4.12,1.384-6.241,1.467a12.778,12.778,0,0,1-6.787-1.121,17.838,17.838,0,0,1-2.789-2.076l-3.052-2.574-6.222-5.246L83.774,199.636l-6.222-5.247q-1.585-1.336-3.17-2.673a3.1,3.1,0,0,1-1.354-2.586,22.431,22.431,0,0,1,4.71-12.221,24.538,24.538,0,0,1,2.1-2.419.868.868,0,0,1,1.209,0,24.916,24.916,0,0,0,9.066,5.685c1.028.366.585,2.018-.454,1.648a26.917,26.917,0,0,1-9.821-6.124h1.209a22.17,22.17,0,0,0-5.915,10.832c-.108.486-.2.976-.273,1.469a4.391,4.391,0,0,0-.12,1.513c.119.483.607.791.966,1.095q.82.694,1.643,1.386l5.635,4.752,23.246,19.6c1.8,1.515,3.448,2.88,5.87,3.145a19.226,19.226,0,0,0,6.439-.328,5.582,5.582,0,0,0,4.093-3.757c.756-2.223.49-4.622.25-6.911a193.023,193.023,0,0,0-5.246-28.7q-1.006-3.843-2.169-7.643a38.752,38.752,0,0,0-2.426-6.589,10.859,10.859,0,0,0-4.645-4.81c-2.447-1.294-5.005-2.4-7.505-3.593-.993-.472-.126-1.946.863-1.475" transform="translate(9.778 -59.789)" fill="#f3806e"/>
            <path id="Path_440" data-name="Path 440" d="M173.013,213.447c-2.407,2.953-3.472,6.716-4.67,10.264l-.974,2.885-.488,1.443a6.04,6.04,0,0,0-.468,1.4c-.022.619.6,1.134.972,1.556q.529.6,1.079,1.173,1.049,1.1,2.166,2.14h-.666a39.027,39.027,0,0,1,4.4-3.529,9.283,9.283,0,0,0,1.155-.762.381.381,0,0,0,.3-.453.785.785,0,0,0,.014-.6c-.02-.245-.089-.494-.133-.735q-.279-1.531-.576-3.059c-.789-4.058-1.67-8.1-2.6-12.126-.135-.59.772-.842.908-.251,1.014,4.413,1.974,8.839,2.819,13.288.2,1.071.429,2.145.592,3.223.139.925-.378,1.218-1.086,1.674a37.279,37.279,0,0,0-5.134,3.995.481.481,0,0,1-.666,0q-1.274-1.187-2.464-2.456a10.249,10.249,0,0,1-1.927-2.286c-.393-.846.227-1.933.5-2.734q.585-1.731,1.17-3.462c1.317-3.9,2.462-8.011,5.107-11.256.383-.47,1.046.2.666.666" transform="translate(-99.196 -81.638)" fill="#f3806e"/>
            <path id="Path_441" data-name="Path 441" d="M195.866,220.658a27.086,27.086,0,0,1,2.48-5.887,14.794,14.794,0,0,0,1.454-2.807,12.278,12.278,0,0,0,.417-3.153c.05-1.1,1.759-1.1,1.709,0a16.3,16.3,0,0,1-.363,3.2,11.65,11.65,0,0,1-1.409,3.058,26.119,26.119,0,0,0-2.639,6.045.855.855,0,0,1-1.648-.454" transform="translate(-142.957 -79.92)" fill="#f3806e"/>
            <path id="Path_442" data-name="Path 442" d="M95.217,253.692l4.875,49.586q.692,7.04,1.384,14.08c.108,1.094-1.6,1.086-1.709,0l-4.875-49.586q-.693-7.041-1.384-14.08c-.108-1.094,1.6-1.086,1.709,0" transform="translate(20.495 -97.168)" fill="#f3806e"/>
            <path id="Path_443" data-name="Path 443" d="M212.757,247.922q-3.116,26.131-5.039,52.385-.546,7.478-.994,14.961c-.066,1.093-1.775,1.1-1.709,0q1.578-26.269,4.353-52.446.792-7.456,1.68-14.9c.129-1.079,1.839-1.092,1.709,0" transform="translate(-159.45 -94.952)" fill="#f3806e"/>
            <path id="Path_444" data-name="Path 444" d="M104.824,247.023a54.231,54.231,0,0,0,11.6,2.316c4.047.445,8.1.82,12.16,1.151,8.072.659,16.17,1.082,24.271,1.032,4.653-.028,9.3-.217,13.943-.6,1.1-.089,1.09,1.62,0,1.709-16.446,1.342-32.984.24-49.359-1.48a59.653,59.653,0,0,1-13.071-2.486c-1.035-.352-.59-2,.454-1.648" transform="translate(-51.974 -94.9)" fill="#f3806e"/>
            <path id="Path_445" data-name="Path 445" d="M131.152,76.9a7.1,7.1,0,0,1,8.617,2.86c.555.893.906,1.9,1.42,2.816a8.572,8.572,0,0,0-2.708-2.012c-1.807-.757-3.863-.434-5.794-.1a5.078,5.078,0,0,1-1.64-3.454" transform="translate(-42.33 -29.364)" fill="#f3806e"/>
            <path id="Path_446" data-name="Path 446" d="M130.582,75.87a7.819,7.819,0,0,1,6.7.564,7.974,7.974,0,0,1,2.344,2.136,27.349,27.349,0,0,1,1.733,3.276.656.656,0,0,1-1.026.792,7.481,7.481,0,0,0-2.751-1.97,8,8,0,0,0-3.6-.211c-.3.037-.6.084-.9.133a3.2,3.2,0,0,1-.879.116c-.478-.065-.892-.707-1.155-1.07A5.811,5.811,0,0,1,130,76.611c-.058-.839,1.249-.836,1.307,0a4.509,4.509,0,0,0,1.449,2.993l-.636-.168a13.835,13.835,0,0,1,5.047-.231,8.1,8.1,0,0,1,4.091,2.509l-1.026.792c-.517-.945-.882-1.973-1.463-2.883a6.417,6.417,0,0,0-2.009-1.978,6.565,6.565,0,0,0-5.827-.514c-.788.3-1.128-.966-.347-1.26" transform="translate(-41.934 -28.961)" fill="#f3806e"/>
            <path id="Path_447" data-name="Path 447" d="M166.384,71.64a5.568,5.568,0,0,0-8.851-3.025,4.857,4.857,0,0,1,3.858.947,7.579,7.579,0,0,1,2.383,3.271.58.58,0,0,0,.223.321.51.51,0,0,0,.337.021,3.085,3.085,0,0,0,2.063-1.424" transform="translate(-83.848 -25.91)" fill="#f3806e"/>
            <path id="Path_448" data-name="Path 448" d="M165.295,71.406a5.032,5.032,0,0,0-3.024-3.422,5.089,5.089,0,0,0-4.867.786l-.5-1.194a5.808,5.808,0,0,1,5.422,1.975,8.844,8.844,0,0,1,1.5,2.412c-.012-.028.132.319.14.314l-.264-.142.127-.026c.2-.094.423-.122.625-.233a2.487,2.487,0,0,0,.921-.866c.449-.709,1.58-.054,1.129.659a3.79,3.79,0,0,1-2.328,1.7,1.138,1.138,0,0,1-1.309-.393c-.259-.4-.4-.89-.636-1.308-.986-1.754-2.854-3.254-4.983-2.833a.657.657,0,0,1-.5-1.195,6.292,6.292,0,0,1,5.994-.872,6.382,6.382,0,0,1,3.816,4.289.654.654,0,0,1-1.26.347" transform="translate(-83.39 -25.502)" fill="#f3806e"/>
            <path id="Path_449" data-name="Path 449" d="M1.069,155.152c7.091,1.4,13.3,5.568,18.088,10.881,5.234,5.806,8.73,12.813,11.309,20.141,5.457,15.505,7.092,32.708,16.607,46.552a32.791,32.791,0,0,0,9.159,9.409,10.33,10.33,0,0,0,5.979,1.764,6.409,6.409,0,0,0,5.01-2.592.859.859,0,0,1,1.562.659,20.351,20.351,0,0,1-15.8,14.875c-4.882.874-9.9-.589-14.742.55a39.963,39.963,0,0,0-6.68,2.527,32.957,32.957,0,0,1-6.759,2.235,41.788,41.788,0,0,1-16.326-.482c-1.077-.218-.621-1.865.454-1.648a41.164,41.164,0,0,0,14.045.717,28.468,28.468,0,0,0,6.664-1.848c2.11-.865,4.156-1.89,6.319-2.62a20.893,20.893,0,0,1,6.944-1.023c2.36.022,4.714.271,7.075.192a18.126,18.126,0,0,0,10.507-3.818,18.411,18.411,0,0,0,6.649-10.111l1.562.658c-2.052,3.025-5.971,3.994-9.4,3.148-3.939-.971-7.177-3.932-9.84-6.851-5.393-5.913-8.934-13.226-11.569-20.718-5.566-15.828-7.092-33.639-17.407-47.438-4.9-6.551-11.707-11.9-19.861-13.511-1.078-.213-.621-1.86.454-1.648" transform="translate(110.738 -59.611)" fill="#f3806e"/>
            <path id="Path_450" data-name="Path 450" d="M230.224,289.516a26.461,26.461,0,0,0-4.954-5.42,25.034,25.034,0,0,0-3.126-2.2,8.3,8.3,0,0,0-3.607-1.369,3.289,3.289,0,0,0-2.761,1.072,2.391,2.391,0,0,0,.287,3.07,14.859,14.859,0,0,0,6.278,4.185.862.862,0,0,1,0,1.648,15.759,15.759,0,0,1-11.346-.85,10.489,10.489,0,0,1-5.369-9.683,20.041,20.041,0,0,1,4.341-11.423,30.051,30.051,0,0,1,10.113-8.624c4.749-2.471,10.06-3.714,14.6-6.606.93-.592,1.789.886.863,1.476-3.707,2.361-7.927,3.633-11.937,5.355a30.154,30.154,0,0,0-10.279,7.031,21.823,21.823,0,0,0-5.685,10.188c-.756,3.553-.157,7.491,2.8,9.889,3.142,2.545,7.71,2.6,11.443,1.6V290.5a19.229,19.229,0,0,1-6.281-3.82c-1.552-1.465-2.744-3.774-1.422-5.789a5.167,5.167,0,0,1,5.641-1.881,17.284,17.284,0,0,1,6.36,3.638,27.983,27.983,0,0,1,5.515,6.006c.624.909-.857,1.765-1.475.863" transform="translate(-183.004 -97.284)" fill="#f3806e"/>
            <path id="Path_451" data-name="Path 451" d="M107.154,250.993c-.047-.13-.095-.26-.146-.389-.02-.052-.041-.1-.062-.154.054.129-.019-.041-.029-.063q-.162-.361-.348-.711a11.229,11.229,0,0,0-.842-1.336c-.033-.045-.066-.089-.1-.134.081.107-.03-.038-.045-.057-.078-.1-.158-.194-.239-.289q-.257-.3-.534-.582t-.575-.542c-.1-.092-.211-.182-.318-.268l-.13-.1c.118.093-.09-.067-.092-.068a.876.876,0,0,1-.306-1.169.863.863,0,0,1,1.169-.306,12.205,12.205,0,0,1,4.246,5.719.859.859,0,0,1-.6,1.051.875.875,0,0,1-1.051-.6" transform="translate(7.124 -94.024)" fill="#f3806e"/>
            <path id="Path_452" data-name="Path 452" d="M24.615,177.9c5.181,10.019,7.485,21.224,10.526,32.086s7.076,21.859,14.889,29.994A18.334,18.334,0,0,0,58,245.294c3.11.873,6.79.275,8.945-2.133a20.325,20.325,0,0,1-16.181,13.973c-3.916.567-7.927-.044-11.851.466-5.48.712-10.454,3.553-15.836,4.8a27.974,27.974,0,0,1-13.667-.269,2.571,2.571,0,0,1-1.53-.862,2.675,2.675,0,0,1-.343-1.233C6.006,246.071,4.361,232.077,3.4,218.059a16.063,16.063,0,0,0,12.236,2.781A8.628,8.628,0,0,0,20.7,218.2c2.117-2.512,1.829-6.2,1.374-9.454a308.343,308.343,0,0,0-6.542-33.252c-1.089-4.278-2.361-8.7-5.327-11.973-2.508-2.765-5.839-3.718-8.75-5.785,1.269-.852,4.017.842,5.214,1.429A32.838,32.838,0,0,1,12,162.472a42.339,42.339,0,0,1,8.893,9.315,51.084,51.084,0,0,1,3.717,6.112" transform="translate(111.715 -60.52)" fill="#f3806e"/>
          </g>
        </g>
      </g>
    </g>
  </g>
</svg>
