<svg xmlns="http://www.w3.org/2000/svg" xmlns:xlink="http://www.w3.org/1999/xlink" width="157.491" height="40.155" viewBox="0 0 157.491 40.155">
  <defs>
    <clipPath id="clip-path">
      <rect id="Rectangle_335" data-name="Rectangle 335" width="157.491" height="40.155" fill="none"/>
    </clipPath>
  </defs>
  <g id="Group_423" data-name="Group 423" transform="translate(0 0)">
    <g id="Group_422" data-name="Group 422" transform="translate(0 0)" clip-path="url(#clip-path)">
      <path id="Path_1064" data-name="Path 1064" d="M262.034,26.57a2.184,2.184,0,1,1,2.184,2.184,2.184,2.184,0,0,1-2.184-2.184" transform="translate(-138.99 -12.935)" fill="#ffe953"/>
      <path id="Path_1065" data-name="Path 1065" d="M231.23,26.57a2.184,2.184,0,1,1,2.184,2.184,2.185,2.185,0,0,1-2.184-2.184" transform="translate(-122.65 -12.935)" fill="#ffe953"/>
      <path id="Path_1066" data-name="Path 1066" d="M200.427,26.57a2.184,2.184,0,1,1,2.184,2.184,2.185,2.185,0,0,1-2.184-2.184" transform="translate(-106.312 -12.935)" fill="#ffe953"/>
      <path id="Path_1067" data-name="Path 1067" d="M169.623,26.57a2.184,2.184,0,1,1,2.184,2.184,2.185,2.185,0,0,1-2.184-2.184" transform="translate(-89.972 -12.935)" fill="#ffe953"/>
      <path id="Path_1068" data-name="Path 1068" d="M138.82,26.57A2.184,2.184,0,1,1,141,28.755a2.185,2.185,0,0,1-2.184-2.184" transform="translate(-73.634 -12.935)" fill="#ffe953"/>
      <path id="Path_1069" data-name="Path 1069" d="M108.016,26.57a2.184,2.184,0,1,1,2.184,2.184,2.185,2.185,0,0,1-2.184-2.184" transform="translate(-57.294 -12.935)" fill="#ffe953"/>
      <path id="Path_1070" data-name="Path 1070" d="M77.213,26.57A2.184,2.184,0,1,1,79.4,28.755a2.185,2.185,0,0,1-2.184-2.184" transform="translate(-40.956 -12.935)" fill="#ffe953"/>
      <path id="Path_1071" data-name="Path 1071" d="M46.41,26.57a2.184,2.184,0,1,1,2.184,2.184A2.184,2.184,0,0,1,46.41,26.57" transform="translate(-24.617 -12.935)" fill="#ffe953"/>
      <path id="Path_1072" data-name="Path 1072" d="M15.606,26.57a2.184,2.184,0,1,1,2.184,2.184,2.185,2.185,0,0,1-2.184-2.184" transform="translate(-8.278 -12.935)" fill="#ffe953"/>
      <path id="Path_1073" data-name="Path 1073" d="M246.427,2.184a2.184,2.184,0,1,1,2.184,2.184,2.185,2.185,0,0,1-2.184-2.184" transform="translate(-130.711 0)" fill="#ffe953"/>
      <path id="Path_1074" data-name="Path 1074" d="M215.624,2.184a2.184,2.184,0,1,1,2.184,2.184,2.185,2.185,0,0,1-2.184-2.184" transform="translate(-114.373 0)" fill="#ffe953"/>
      <path id="Path_1075" data-name="Path 1075" d="M184.82,2.184A2.184,2.184,0,1,1,187,4.369a2.185,2.185,0,0,1-2.184-2.184" transform="translate(-98.033 0)" fill="#ffe953"/>
      <path id="Path_1076" data-name="Path 1076" d="M154.017,2.184A2.184,2.184,0,1,1,156.2,4.369a2.185,2.185,0,0,1-2.184-2.184" transform="translate(-81.695 0)" fill="#ffe953"/>
      <path id="Path_1077" data-name="Path 1077" d="M123.214,2.184A2.184,2.184,0,1,1,125.4,4.369a2.185,2.185,0,0,1-2.184-2.184" transform="translate(-65.356 0)" fill="#ffe953"/>
      <path id="Path_1078" data-name="Path 1078" d="M92.41,2.184a2.184,2.184,0,1,1,2.184,2.184A2.185,2.185,0,0,1,92.41,2.184" transform="translate(-49.017 0)" fill="#ffe953"/>
      <path id="Path_1079" data-name="Path 1079" d="M61.607,2.184a2.184,2.184,0,1,1,2.184,2.184,2.185,2.185,0,0,1-2.184-2.184" transform="translate(-32.678 0)" fill="#ffe953"/>
      <path id="Path_1080" data-name="Path 1080" d="M30.8,2.184a2.184,2.184,0,1,1,2.184,2.184A2.185,2.185,0,0,1,30.8,2.184" transform="translate(-16.339 0)" fill="#ffe953"/>
      <path id="Path_1081" data-name="Path 1081" d="M0,2.184A2.184,2.184,0,1,1,2.184,4.369,2.185,2.185,0,0,1,0,2.184" transform="translate(0 0)" fill="#ffe953"/>
      <path id="Path_1082" data-name="Path 1082" d="M326.087,78.393a2.184,2.184,0,1,1,2.184,2.184,2.185,2.185,0,0,1-2.184-2.184" transform="translate(-172.965 -40.423)" fill="#fff"/>
      <path id="Path_1083" data-name="Path 1083" d="M295.283,78.393a2.184,2.184,0,1,1,2.185,2.184,2.185,2.185,0,0,1-2.185-2.184" transform="translate(-156.626 -40.423)" fill="#fff"/>
      <path id="Path_1084" data-name="Path 1084" d="M264.48,78.393a2.184,2.184,0,1,1,2.184,2.184,2.185,2.185,0,0,1-2.184-2.184" transform="translate(-140.287 -40.423)" fill="#fff"/>
      <path id="Path_1085" data-name="Path 1085" d="M233.676,78.393a2.184,2.184,0,1,1,2.184,2.184,2.185,2.185,0,0,1-2.184-2.184" transform="translate(-123.948 -40.423)" fill="#fff"/>
      <path id="Path_1086" data-name="Path 1086" d="M202.873,78.393a2.184,2.184,0,1,1,2.184,2.184,2.185,2.185,0,0,1-2.184-2.184" transform="translate(-107.609 -40.423)" fill="#fff"/>
      <path id="Path_1087" data-name="Path 1087" d="M172.07,78.393a2.184,2.184,0,1,1,2.184,2.184,2.185,2.185,0,0,1-2.184-2.184" transform="translate(-91.27 -40.423)" fill="#fff"/>
      <path id="Path_1088" data-name="Path 1088" d="M141.266,78.393a2.184,2.184,0,1,1,2.184,2.184,2.185,2.185,0,0,1-2.184-2.184" transform="translate(-74.931 -40.423)" fill="#fff"/>
      <path id="Path_1089" data-name="Path 1089" d="M110.463,78.393a2.184,2.184,0,1,1,2.184,2.184,2.185,2.185,0,0,1-2.184-2.184" transform="translate(-58.592 -40.423)" fill="#fff"/>
      <path id="Path_1090" data-name="Path 1090" d="M79.659,78.393a2.184,2.184,0,1,1,2.184,2.184,2.185,2.185,0,0,1-2.184-2.184" transform="translate(-42.253 -40.423)" fill="#fff"/>
      <path id="Path_1091" data-name="Path 1091" d="M310.481,54.007a2.184,2.184,0,1,1,2.184,2.184,2.185,2.185,0,0,1-2.184-2.184" transform="translate(-164.687 -27.488)" fill="#fff"/>
      <path id="Path_1092" data-name="Path 1092" d="M279.677,54.007a2.184,2.184,0,1,1,2.184,2.184,2.185,2.185,0,0,1-2.184-2.184" transform="translate(-148.348 -27.488)" fill="#fff"/>
      <path id="Path_1093" data-name="Path 1093" d="M248.874,54.007a2.184,2.184,0,1,1,2.184,2.184,2.185,2.185,0,0,1-2.184-2.184" transform="translate(-132.009 -27.488)" fill="#fff"/>
      <path id="Path_1094" data-name="Path 1094" d="M218.07,54.007a2.184,2.184,0,1,1,2.184,2.184,2.185,2.185,0,0,1-2.184-2.184" transform="translate(-115.67 -27.488)" fill="#fff"/>
      <path id="Path_1095" data-name="Path 1095" d="M187.267,54.007a2.184,2.184,0,1,1,2.184,2.184,2.185,2.185,0,0,1-2.184-2.184" transform="translate(-99.331 -27.488)" fill="#fff"/>
      <path id="Path_1096" data-name="Path 1096" d="M156.464,54.007a2.184,2.184,0,1,1,2.184,2.184,2.184,2.184,0,0,1-2.184-2.184" transform="translate(-82.993 -27.488)" fill="#fff"/>
      <path id="Path_1097" data-name="Path 1097" d="M125.66,54.007a2.184,2.184,0,1,1,2.184,2.184,2.185,2.185,0,0,1-2.184-2.184" transform="translate(-66.653 -27.488)" fill="#fff"/>
      <path id="Path_1098" data-name="Path 1098" d="M94.857,54.007a2.184,2.184,0,1,1,2.184,2.184,2.185,2.185,0,0,1-2.184-2.184" transform="translate(-50.315 -27.488)" fill="#fff"/>
      <path id="Path_1099" data-name="Path 1099" d="M64.053,54.007a2.184,2.184,0,1,1,2.184,2.184,2.185,2.185,0,0,1-2.184-2.184" transform="translate(-33.975 -27.488)" fill="#fff"/>
    </g>
  </g>
</svg>
